<svg id="Capa_1" enable-background="new 0 0 604.906 604.906" height="512" viewBox="0 0 604.906 604.906" width="512" xmlns="http://www.w3.org/2000/svg"><g><g><g><path d="m391.638 133.777c-2.088 4.176-6.264 6.711-10.887 6.711h-20.134v224.006c-24.31-51.453-65.621-93.361-116.477-118.565v-105.44h-20.134c-4.623 0-8.799-2.684-10.887-6.711-1.939-4.176-1.641-9.097 1.193-12.677l78.447-102.906c2.237-2.983 5.966-4.772 9.694-4.772s7.308 1.79 9.545 4.772l78.447 102.905c2.684 3.58 3.281 8.501 1.193 12.677z" fill="#2b79c2"/></g><g><path d="m604.906 302.453c0 3.728-1.79 7.308-4.772 9.545l-102.906 78.447c-3.579 2.834-8.65 3.281-12.677 1.193-4.176-2.088-6.711-6.264-6.711-10.887v-20.134h-14.466c-31.319 0-59.506 14.168-78.447 36.539v-135.716c27.292-11.335 56.822-17.3 87.097-17.3h5.816v-20.134c0-4.623 2.685-8.799 6.711-10.887 4.176-1.939 9.097-1.641 12.677 1.193l102.906 78.447c2.982 2.386 4.772 5.816 4.772 9.694z" fill="#3b4651"/></g><g><path d="m360.617 472.023v107.38c0 6.711-5.369 12.08-12.08 12.08h-92.317c-6.711 0-12.08-5.369-12.08-12.08v-116.179c0-56.524-45.935-102.607-102.607-102.607h-14.466v20.134c0 4.623-2.535 8.799-6.711 10.887s-9.097 1.641-12.677-1.193l-102.907-78.447c-2.982-2.237-4.772-5.817-4.772-9.545 0-3.878 1.641-7.308 4.772-9.694l102.906-78.447c3.579-2.834 8.65-3.132 12.677-1.193 4.176 2.088 6.711 6.264 6.711 10.887v20.134h5.966c125.574 0 227.585 102.309 227.585 227.883z" fill="#3b4651"/></g></g></g></svg>